<svg version="1.1" id="Layer_1" xmlns="http://www.w3.org/2000/svg" xmlns:xlink="http://www.w3.org/1999/xlink" x="0px" y="0px"
	 width="100%" viewBox="0 0 622 393" enable-background="new 0 0 622 393" xml:space="preserve">
<path fill="#FFFFFF" opacity="1.000000" stroke="none" 
	d="
M402.000000,394.000000 
	C269.500031,394.000000 137.500046,393.981506 5.500175,394.094208 
	C1.750863,394.097412 0.902389,393.249817 0.905710,389.500000 
	C1.019077,261.500153 1.019068,133.500137 0.905762,5.500272 
	C0.902443,1.751174 1.750100,0.904457 5.499858,0.906395 
	C209.833084,1.011995 414.166351,1.011978 618.499573,0.906495 
	C622.248047,0.904560 623.097717,1.749299 623.094360,5.499745 
	C622.980896,133.499619 622.980957,261.499634 623.094238,389.499481 
	C623.097534,393.248016 622.251526,394.102478 618.500244,394.095764 
	C546.500366,393.966309 474.500153,394.000000 402.000000,394.000000 
z"/>
<path fill="#686869" opacity="1.000000" stroke="none" 
	d="
M62.999977,387.174835 
	C45.835026,387.174744 29.167665,387.019318 12.506742,387.278168 
	C8.055910,387.347290 6.704603,386.325378 6.715864,381.622314 
	C6.883454,311.629944 6.831714,241.637039 6.831752,171.644257 
	C6.831780,121.816071 6.883881,71.987724 6.740552,22.159952 
	C6.728024,17.804775 7.546219,16.266670 12.351796,16.272547 
	C132.505875,16.419504 252.660217,16.411619 372.814362,16.289322 
	C377.065002,16.284994 377.976288,17.494699 377.956909,21.565073 
	C377.791168,56.394024 377.720093,91.225296 378.014313,126.052551 
	C378.058441,131.274033 375.683533,130.894455 372.104919,131.128845 
	C367.954407,131.400696 366.858429,130.144730 366.883789,125.962997 
	C367.071747,94.967331 366.909393,63.969578 367.079193,32.973701 
	C367.102936,28.634466 366.246429,27.048153 361.455353,27.054279 
	C248.633881,27.198599 135.812119,27.196962 22.990597,27.065022 
	C18.535627,27.059813 17.504831,28.251770 17.509468,32.595066 
	C17.630068,145.583252 17.623650,258.571655 17.523699,371.559875 
	C17.520142,375.581177 18.432592,376.925140 22.713633,376.920715 
	C135.868500,376.803406 249.023529,376.807037 362.178406,376.922760 
	C366.179932,376.926849 367.092438,375.796265 367.073242,371.939697 
	C366.917542,340.610352 367.067352,309.279449 366.885742,277.950409 
	C366.861816,273.820923 367.860260,272.442078 372.070648,272.712311 
	C375.663727,272.942902 378.050232,272.606689 378.008087,277.799835 
	C377.726746,312.460632 377.774139,347.125305 377.971771,381.787292 
	C377.997009,386.213165 376.867981,387.283112 372.468475,387.277466 
	C269.479095,387.144928 166.489517,387.174805 62.999977,387.174835 
z"/>
<path fill="#666668" opacity="1.000000" stroke="none" 
	d="
M333.577881,151.328079 
	C341.878876,156.700989 346.574249,164.280807 348.617615,173.306442 
	C351.406952,185.627213 351.558105,198.107574 348.231934,210.382156 
	C344.074280,225.725006 332.507233,235.369675 318.140106,235.938248 
	C301.445740,236.598907 288.667145,228.622589 283.376770,213.063843 
	C278.538361,198.834335 278.418335,184.086105 283.254150,169.863052 
	C290.575470,148.329788 313.248230,140.118591 333.577881,151.328079 
z"/>
<path fill="#666668" opacity="1.000000" stroke="none" 
	d="
M191.863983,178.074005 
	C198.630569,195.826248 205.189194,213.246262 212.018509,230.559525 
	C213.547958,234.436951 212.334366,234.618805 208.840942,235.005035 
	C203.184219,235.630432 200.359970,233.683243 199.017349,228.190933 
	C197.919540,223.700104 195.763672,219.478302 194.387192,215.040985 
	C193.664398,212.710953 192.533676,211.933899 190.133118,211.962036 
	C180.139236,212.079239 170.141586,212.111282 160.148987,211.949020 
	C157.446121,211.905121 156.409866,212.957611 155.625336,215.369843 
	C153.827133,220.898849 151.737122,226.334351 149.706085,231.785629 
	C148.767075,234.305893 139.357712,236.496811 137.582184,234.535492 
	C136.312119,233.132507 137.762802,231.674515 138.238678,230.417496 
	C146.534637,208.503464 154.926132,186.625610 163.298477,164.740509 
	C164.901535,160.550171 166.727768,156.429398 168.051117,152.152771 
	C169.136673,148.644669 170.843231,147.198929 174.747009,147.255157 
	C178.588776,147.310471 180.697998,148.159729 182.030975,152.084488 
	C184.966537,160.727783 188.477585,169.175613 191.863983,178.074005 
z"/>
<path fill="#6A6A6C" opacity="1.000000" stroke="none" 
	d="
M469.116394,196.074249 
	C469.111572,194.421158 469.126709,193.255157 469.099091,192.090195 
	C468.873016,182.547226 464.772278,177.911407 456.689972,178.049698 
	C447.434875,178.208084 440.728912,184.424500 440.720978,192.885635 
	C440.709106,205.539978 440.502106,218.199844 440.823212,230.846054 
	C440.954834,236.030426 437.740021,234.839737 434.971161,234.847595 
	C432.175079,234.855545 429.089325,235.945496 429.129425,230.808716 
	C429.347595,202.837616 429.303375,174.863571 429.153992,146.891586 
	C429.134857,143.304291 430.576050,142.821533 433.558105,142.915848 
	C442.190094,143.188843 440.604828,141.926468 440.699768,150.006760 
	C440.800476,158.575897 440.722412,167.147125 440.722412,176.822403 
	C447.224060,171.024689 453.686523,168.383591 461.430389,168.861603 
	C472.144104,169.522919 479.180878,175.853500 479.998108,186.609085 
	C481.134827,201.568939 480.221039,216.567627 480.538269,231.544861 
	C480.594849,234.214890 479.596069,235.155350 477.045258,234.880661 
	C475.893982,234.756699 474.699402,234.748932 473.554443,234.906509 
	C470.112488,235.380310 468.966919,234.100906 469.037018,230.527191 
	C469.259033,219.209244 469.117523,207.884155 469.116394,196.074249 
z"/>
<path fill="#69696A" opacity="1.000000" stroke="none" 
	d="
M533.973145,170.822266 
	C545.054199,177.259506 551.530518,191.650742 549.181641,203.466080 
	C548.603516,206.374130 546.605469,205.568436 544.981506,205.577530 
	C533.497437,205.641922 522.005432,205.852585 510.532043,205.497528 
	C505.766541,205.350037 505.166626,207.352325 506.087708,211.066238 
	C507.778076,217.882233 511.214050,223.505371 518.164001,225.822617 
	C525.442261,228.249344 532.549683,227.330917 538.067993,221.707443 
	C540.942566,218.778152 542.746460,218.644424 545.728394,221.237167 
	C547.860657,223.091187 547.994812,224.111450 546.163757,226.298401 
	C532.939514,242.092621 505.558655,238.605118 497.286041,219.732178 
	C492.387573,208.556824 492.583954,196.924667 497.423920,185.788345 
	C503.671356,171.413651 518.127808,165.634995 533.973145,170.822266 
z"/>
<path fill="#69696A" opacity="1.000000" stroke="none" 
	d="
M567.567505,227.423737 
	C556.362488,216.446396 556.450928,189.774704 567.337891,178.193405 
	C575.726440,169.269867 585.934143,166.573608 597.337585,170.264877 
	C608.367981,173.835419 612.554688,183.125092 613.822876,193.745621 
	C615.237122,205.589020 614.977966,205.620102 603.225647,205.618774 
	C594.072998,205.617737 584.920410,205.607162 575.767761,205.618591 
	C570.620605,205.625031 569.905701,206.392441 571.263855,211.406631 
	C573.133911,218.310883 576.719360,223.955658 584.070679,226.059937 
	C591.526428,228.194092 598.609070,226.987854 603.789978,221.164612 
	C607.662537,216.811996 609.514221,220.435959 611.773987,222.207138 
	C614.853638,224.620880 611.376160,225.990845 610.296265,227.181595 
	C599.379761,239.218613 580.329773,239.367691 567.567505,227.423737 
z"/>
<path fill="#666668" opacity="1.000000" stroke="none" 
	d="
M264.818878,189.852402 
	C258.754456,207.323029 252.827103,224.423233 246.832825,241.499954 
	C244.958252,246.840286 242.929245,252.081009 238.622604,256.133057 
	C235.019684,259.522980 230.938110,261.005585 226.003311,261.080200 
	C221.274796,261.151703 219.409271,259.447388 219.959137,254.618896 
	C220.232162,252.221375 220.569748,251.350006 223.320374,251.181137 
	C234.688690,250.483215 241.519882,239.536362 237.625900,228.773941 
	C231.072800,210.662216 224.605103,192.519272 217.957947,174.442261 
	C216.786636,171.256882 216.518539,169.783493 220.815903,169.896896 
	C228.642792,170.103470 228.623978,169.874008 231.149277,177.518066 
	C235.471481,190.601364 239.828583,203.673157 244.282761,217.086304 
	C246.215698,215.608978 246.225342,213.509277 246.764679,211.808945 
	C250.780975,199.147202 254.654633,186.440277 258.594666,173.754242 
	C259.525299,170.757797 268.401825,168.173492 270.628571,170.288422 
	C271.660675,171.268692 270.823273,172.428391 270.464050,173.472260 
	C268.627777,178.808685 266.776306,184.139893 264.818878,189.852402 
z"/>
<path fill="#676768" opacity="1.000000" stroke="none" 
	d="
M367.916748,195.916855 
	C363.014069,186.056137 366.395233,176.355713 376.772003,171.749680 
	C386.924072,167.243362 397.092041,167.386734 406.666382,173.896439 
	C408.948578,175.448135 410.641785,177.443451 411.881683,179.806595 
	C413.268250,182.449432 415.512939,185.894836 413.704041,188.140259 
	C411.818024,190.481491 407.779907,188.697601 404.701355,188.989059 
	C402.713928,189.177216 402.870789,187.409317 402.392578,186.315094 
	C398.723389,177.919296 388.285156,174.989807 380.679779,180.254990 
	C375.330383,183.958374 375.620209,190.880936 381.294189,194.084106 
	C386.156891,196.829239 391.738586,197.313934 396.962280,198.926056 
	C401.922882,200.457001 406.924072,202.037903 410.645081,205.764313 
	C417.730133,212.859711 415.809418,225.429825 406.963593,231.416595 
	C397.031616,238.138504 379.965454,237.413055 370.775848,229.830429 
	C366.918549,226.647659 364.547089,222.607773 363.711823,217.605423 
	C363.372864,215.575485 363.879883,214.864441 365.894409,214.958954 
	C367.887817,215.052490 369.892761,215.061584 371.885468,214.962540 
	C373.881714,214.863312 374.577637,215.630798 375.155670,217.655014 
	C378.409180,229.048416 395.530853,228.875824 401.177399,223.464951 
	C405.442810,219.377625 404.152679,212.637054 398.605408,209.713242 
	C394.600769,207.602493 390.064941,207.065170 385.807434,205.699951 
	C379.345428,203.627823 372.581482,202.045837 367.916748,195.916855 
z"/>
<path fill="#FEFEFE" opacity="1.000000" stroke="none" 
	d="
M327.296631,159.514526 
	C333.034515,163.367432 336.011261,168.721405 337.348236,174.864609 
	C339.854156,186.378937 340.009308,197.997818 336.858826,209.413620 
	C333.908203,220.105255 326.674591,225.771500 316.499939,226.083405 
	C305.917023,226.407822 298.020660,221.329895 294.554718,210.785721 
	C290.408783,198.172989 290.354492,185.139435 294.262878,172.516083 
	C298.893829,157.559067 312.903717,152.222488 327.296631,159.514526 
z"/>
<path fill="#F8F8F9" opacity="1.000000" stroke="none" 
	d="
M188.802673,199.538788 
	C189.814026,202.591110 188.056839,202.604874 186.267960,202.603973 
	C178.774078,202.600189 171.279922,202.564621 163.786499,202.622253 
	C161.377884,202.640762 160.389954,202.023575 161.354767,199.411148 
	C165.781021,187.426300 170.106949,175.404404 175.020798,161.876373 
	C179.886093,175.162598 184.276825,187.152863 188.802673,199.538788 
z"/>
<path fill="#FCFCFD" opacity="1.000000" stroke="none" 
	d="
M508.366058,196.380493 
	C506.782166,196.324799 506.060547,195.938309 506.085327,194.615646 
	C506.202240,188.375076 512.389282,180.211807 518.381531,178.449631 
	C528.272278,175.540970 538.672546,184.120743 537.866699,194.424011 
	C537.643738,197.275055 535.614929,196.340546 534.219238,196.354141 
	C525.754944,196.436584 517.289368,196.391861 508.366058,196.380493 
z"/>
<path fill="#FCFCFC" opacity="1.000000" stroke="none" 
	d="
M590.490845,178.071655 
	C599.132812,179.399933 602.208008,187.691895 602.931335,193.926987 
	C603.181274,196.081055 601.995178,196.405045 600.264587,196.399963 
	C591.452942,196.374130 582.640991,196.367691 573.829407,196.409348 
	C571.751709,196.419189 570.826050,195.982788 571.381348,193.529816 
	C573.745544,183.085724 580.914734,176.701263 590.490845,178.071655 
z"/>
</svg>